<svg xmlns="http://www.w3.org/2000/svg" width="20" height="20" viewBox="0 0 20 20"><g data-name="グループ 3894" fill="#fff"><path data-name="パス 450" d="M4.481 6.555h2.037v1.018H7.74V6.555h4.482v1.018h1.222V6.555h2.037v4.278h1.222v-5.5h-3.259V3.525a1.454 1.454 0 00-1.452-1.452H7.974a1.454 1.454 0 00-1.452 1.452v1.807H3.263v11.816h8.759v-1.223H4.485zm3.259-3.03a.231.231 0 01.23-.23h4.022a.231.231 0 01.23.23v1.807H7.74z"/><path data-name="パス 451" d="M17.73 13.656h-2.269v-2.269h-1.222v2.269H11.97v1.222h2.269v2.269h1.222v-2.269h2.269z"/></g></svg>